<svg width="34" height="30" viewBox="0 0 34 30" fill="none" xmlns="http://www.w3.org/2000/svg">
<path d="M30.3333 0H10.3333C8.4923 0 6.99992 1.49238 6.99992 3.33333V8.33333C6.99992 9.25381 6.25373 10 5.33325 10C2.57183 10 0.333252 12.2386 0.333252 15C0.333252 17.7614 2.57183 20 5.33325 20C6.25373 20 6.99992 20.7462 6.99992 21.6667V26.6667C6.99992 28.5076 8.4923 30 10.3333 30H13.6666C14.5871 30 15.3333 29.2538 15.3333 28.3333C15.3333 25.5719 17.5718 23.3333 20.3333 23.3333C23.0947 23.3333 25.3333 25.5719 25.3333 28.3333C25.3333 29.2538 26.0794 30 26.9999 30H30.3333C32.1742 30 33.6666 28.5076 33.6666 26.6667V21.6667C33.6666 20.7462 32.9204 20 31.9999 20C29.2385 20 26.9999 17.7614 26.9999 15C26.9999 12.2386 29.2385 10 31.9999 10C32.9204 10 33.6666 9.25381 33.6666 8.33333V3.33333C33.6666 1.49238 32.1742 0 30.3333 0Z" fill="#252F40"/>
</svg>
